<svg xmlns="http://www.w3.org/2000/svg" xmlns:xlink="http://www.w3.org/1999/xlink" viewBox="0 0 24 24"><path d="M 9 22 L 15 22 C 20 22 22 20 22 15 L 22 9 C 22 4 20 2 15 2 L 9 2 C 4 2 2 4 2 9 L 2 15 C 2 20 4 22 9 22 Z" fill="transparent" stroke-width="1.5" stroke="rgb(27,27,27)" stroke-linecap="round" stroke-linejoin="round" stroke-dasharray=""></path><path d="M 11.481 10.481 L 11.481 17 M 8.223 10.481 L 8.223 17 M 11.481 13.333 C 11.481 11.758 12.758 10.481 14.333 10.481 C 15.908 10.481 17.185 11.758 17.185 13.333 L 17.185 17" fill="transparent" stroke-width="1.63" stroke="rgb(27,27,27)" stroke-linecap="round" stroke-linejoin="round" stroke-dasharray=""></path><path d="M 8.222 8.444 C 8.897 8.444 9.444 7.897 9.444 7.222 C 9.444 6.547 8.897 6 8.222 6 C 7.547 6 7 6.547 7 7.222 C 7 7.897 7.547 8.444 8.222 8.444 Z" fill="rgb(27,27,27)"></path></svg>