<svg width="1689" height="324" fill="none" xmlns="http://www.w3.org/2000/svg" id="svg-684982350_5253"><g clip-path="url(#svg-684982350_5253_a)"><path d="M421 225.263h71.198c49.577 0 77.969-29.702 77.969-76.44 0-46.956-28.392-76.44-77.969-76.44H421v152.88Zm28.174-24.898V97.281h41.932c34.071 0 50.669 18.782 50.669 51.542 0 32.76-16.598 51.542-50.669 51.542h-41.932Zm201.556 28.174c30.357 0 50.668-15.288 56.347-35.599h-26.208c-4.805 10.265-15.288 14.414-28.174 14.414-22.058 0-33.852-11.357-36.691-29.702h94.786c3.057-44.117-21.404-69.233-60.279-69.233-39.967 0-62.025 26.645-62.025 60.06 0 33.634 21.84 60.06 62.244 60.06Zm-34.944-68.796c2.402-19.656 13.977-30.794 34.725-30.794 18.783 0 30.576 9.172 33.852 30.794h-68.577Zm166.552 68.796c37.783 0 55.91-11.793 55.91-37.346-.218-20.093-11.357-29.048-36.473-31.45l-26.645-2.621c-13.54-1.31-18.782-5.46-18.782-13.54 0-10.265 8.518-14.852 26.426-14.852 19.22 0 26.427 5.46 27.519 15.943h24.679c-.655-30.794-26.645-36.254-51.106-36.254-37.128 0-54.163 12.23-54.163 35.818 0 19.874 12.012 30.357 36.91 32.76l26.645 2.402c12.667 1.31 18.127 4.586 18.127 13.541 0 11.138-9.391 15.069-28.174 15.069-19.001 0-28.392-4.368-29.702-15.724h-24.898c.874 30.576 27.519 36.254 53.727 36.254Zm78.006-3.276h27.3V111.695h-27.3v113.568Zm-1.529-148.949c0 7.644 5.46 14.196 15.07 14.196 9.609 0 15.069-6.552 15.069-14.196 0-7.862-5.46-14.414-15.069-14.414-9.61 0-15.07 6.552-15.07 14.414ZM967.35 261.517c34.51 0 65.08-13.104 65.08-53.944v-95.878h-26.2l-1.1 15.07 4.81 10.264c-10.267-19.437-25.337-28.61-45.648-28.61-33.852 0-54.818 24.242-54.818 56.784 0 32.105 20.529 55.255 54.818 55.255 17.035 0 34.289-5.678 42.148-22.932v12.886c0 26.863-26.86 30.139-41.493 30.139-18.782 0-32.323-5.023-39.53-9.173v21.185c7.644 4.805 22.714 8.954 41.933 8.954Zm-31.013-96.314c0-19.001 12.449-33.852 34.289-33.852 21.84 0 34.944 14.633 34.944 33.852 0 18.782-13.104 33.634-34.944 33.634-21.84 0-34.289-15.07-34.289-33.634Zm123.203 60.06h27.3v-59.842c0-21.621 12.67-32.978 33.2-32.978 20.31 0 30.79 11.357 30.79 32.978v59.842h27.3V160.18c0-32.323-15.94-51.761-48.27-51.761-24.46 0-37.78 11.138-45.42 25.99l2.4-6.115-.88-16.599h-26.42v113.568Zm146.76 0h28.18v-38.438h52.85c42.15 0 60.06-24.243 60.06-57.221 0-33.197-17.91-57.22-60.06-57.22h-81.03v152.879Zm28.18-63.336V97.281h49.35c22.72 0 35.38 9.172 35.38 32.323 0 22.932-12.66 32.323-35.38 32.323h-49.35Zm138.59 63.336h27.3V111.695h-27.3v113.568Zm-1.53-148.949c0 7.644 5.46 14.196 15.07 14.196s15.07-6.552 15.07-14.196c0-7.862-5.46-14.414-15.07-14.414s-15.07 6.552-15.07 14.414Zm47.39 148.949h32.1l30.58-38.22 30.57 38.22h32.11l-46.96-57.221 46.08-56.347h-31.88l-29.92 37.128-29.92-37.128h-31.89l46.3 56.347-47.17 57.221Zm144.18 0h27.3V111.695h-27.3v113.568Zm-1.53-148.949c0 7.644 5.46 14.196 15.07 14.196s15.07-6.552 15.07-14.196c0-7.862-5.46-14.414-15.07-14.414s-15.07 6.552-15.07 14.414Zm56.12 148.949h27.3V70.199h-27.3v155.064Z" fill="#1B1B1B"/><mask id="svg-684982350_5253_b" style="mask-type:alpha" maskUnits="userSpaceOnUse" x="38" y="44" width="161" height="236"><path d="M118.706 201.257c0 43.268 35.864 78.51 80.293 78.51H59.824c-13.739-23.029-21.411-49.897-21.411-78.51 0-86.71 71.907-157.02 160.586-157.02v78.51c-44.429 0-80.293 35.068-80.293 78.51Z" fill="#000"/></mask><g mask="url(#svg-684982350_5253_b)"><g filter="url(#svg-684982350_5253_c)"><path d="M321.047 6.687c0 53.266-109.519 179.065-155.277 179.065-45.759 0-178.743 16.508-178.743-36.757 0-53.266 132.984-156.133 178.743-156.133 45.758 0 155.277-39.44 155.277 13.825Z" fill="#F46731"/></g><g filter="url(#svg-684982350_5253_d)"><path d="M-107.658 61.935C-67.662 37.537 75.649 94.342 96.06 142.151c20.411 47.81 92.125 179.193 52.129 203.591-39.996 24.399-176.556-67.427-196.967-115.237-20.41-47.809-98.876-144.172-58.88-168.57Z" fill="#59EDF7"/></g><g filter="url(#svg-684982350_5253_e)"><path d="M181.369 124.176c23.201 27.733 22.467 159.608-.734 187.341-23.2 27.733-83.436 116.926-106.636 89.193-23.201-27.733-.581-161.89 22.62-189.623 23.2-27.733 61.55-114.644 84.75-86.911Z" fill="#E42D75"/></g></g><path d="M279.294 122.747c0-43.268-35.865-78.51-80.294-78.51h139.176c13.74 23.03 21.412 49.898 21.412 78.51 0 86.71-71.908 157.02-160.588 157.02v-78.51c44.251 0 80.294-35.068 80.294-78.51Z" fill="#E42D75"/></g><defs><filter id="svg-684982350_5253_c" x="-95.49" y="-103.708" width="499.055" height="374.395" filterUnits="userSpaceOnUse" color-interpolation-filters="sRGB"><feFlood flood-opacity="0" result="BackgroundImageFix"/><feBlend in="SourceGraphic" in2="BackgroundImageFix" result="shape"/><feGaussianBlur stdDeviation="41.259" result="effect1_foregroundBlur_786_9011"/></filter><filter id="svg-684982350_5253_d" x="-201.371" y="-26.433" width="444.006" height="458.742" filterUnits="userSpaceOnUse" color-interpolation-filters="sRGB"><feFlood flood-opacity="0" result="BackgroundImageFix"/><feBlend in="SourceGraphic" in2="BackgroundImageFix" result="shape"/><feGaussianBlur stdDeviation="41.259" result="effect1_foregroundBlur_786_9011"/></filter><filter id="svg-684982350_5253_e" x="-18.251" y="36.267" width="299.175" height="452.241" filterUnits="userSpaceOnUse" color-interpolation-filters="sRGB"><feFlood flood-opacity="0" result="BackgroundImageFix"/><feBlend in="SourceGraphic" in2="BackgroundImageFix" result="shape"/><feGaussianBlur stdDeviation="41.259" result="effect1_foregroundBlur_786_9011"/></filter><clipPath id="svg-684982350_5253_a"><path fill="#fff" d="M0 0h1689v324H0z"/></clipPath></defs></svg>